<svg width="40px" height="30px" viewBox="0 0 40 30" version="1.1" xmlns="http://www.w3.org/2000/svg" xmlns:xlink="http://www.w3.org/1999/xlink" xmlns:sketch="http://www.bohemiancoding.com/sketch/ns">
    <g id="Page-1" stroke="none" stroke-width="1" fill="none" fill-rule="evenodd">
        <g id="Desktop-Copy-7" transform="translate(-404.000000, -284.000000)" fill="#FFFFFF">
            <g id="social-media-copy" transform="translate(411.001263, 292.445707)">
                <path d="M22.908505,2.31423339 L16.694205,2.31423339 L16.694205,0.774343521 L22.908505,0.774343521 L22.908505,2.31423339 L22.908505,2.31423339 Z M12.5640903,8.64216161 C12.9658323,9.26597615 13.1600162,10.0199032 13.1600162,10.898811 C13.1600162,11.815923 12.9379436,12.6369799 12.4793876,13.3630702 C12.1881635,13.8453679 11.8245741,14.2430147 11.3887748,14.5755533 C10.8940879,14.9545904 10.3126248,15.20761 9.64542209,15.3480901 C8.97308749,15.4916286 8.25218099,15.5618687 7.46829173,15.5618687 L0.522821325,15.5618687 L0.522821325,0.130934343 L7.96925098,0.130934343 C9.85204704,0.160896517 11.1770698,0.706176983 11.9630325,1.7751216 C12.4350145,2.42889832 12.6725347,3.21688276 12.6725347,4.12989966 C12.6725347,5.07282691 12.4339778,5.82882751 11.9599223,6.40515874 C11.6945134,6.72323469 11.2989401,7.02067925 10.7846068,7.27991944 C11.5705695,7.56595971 12.1633851,8.01523681 12.5640903,8.64216161 L12.5640903,8.64216161 Z M4.08080358,6.21097482 L7.34030452,6.21097482 C8.01367587,6.21097482 8.55693466,6.08495744 8.97313933,5.83090101 C9.39245425,5.57788134 9.59902737,5.12036205 9.59902737,4.47482753 C9.59902737,3.75288428 9.32122929,3.27888061 8.7676548,3.04960259 C8.29359929,2.89263812 7.68735773,2.80793537 6.9489301,2.80793537 L4.08080358,2.80793537 L4.08080358,6.21097482 L4.08080358,6.21097482 Z M9.91399306,10.6788119 C9.91399306,9.87631289 9.58762308,9.3227384 8.93389821,9.0304776 C8.56828711,8.85905043 8.05084348,8.77020066 7.38882458,8.76610548 L4.08080358,8.76610548 L4.08080358,12.8766255 L7.33823101,12.8766255 C8.00647043,12.8766255 8.52593574,12.7836805 8.89978902,12.6081063 C9.57523388,12.2692953 9.91399306,11.6238126 9.91399306,10.6788119 L9.91399306,10.6788119 Z M25.210616,8.16914286 C25.2870247,8.67108703 25.3159501,9.41158817 25.3087447,10.3637944 L17.2684627,10.3637944 C17.3035568,11.4771639 17.6898511,12.2496488 18.4169263,12.689647 C18.8527774,12.9726288 19.3856687,13.1151824 20.01052,13.1151824 C20.6663184,13.1151824 21.1982247,12.9458288 21.6123559,12.610128 C21.8468177,12.4211279 22.039913,12.1753136 22.2134137,11.8417382 L25.1610073,11.8417382 C25.0742311,12.4975366 24.7272297,13.1678495 24.0838205,13.8453679 C23.0933581,14.9143125 21.7094478,15.450314 19.9330227,15.450314 C18.4602626,15.450314 17.1578929,15.0031104 16.0383547,14.0932038 C14.9208901,13.1915912 14.3476691,11.7157208 14.3476691,9.67907055 C14.3476691,7.75807012 14.8537603,6.28427329 15.8710227,5.26597407 C16.8873003,4.24145433 18.1989489,3.73432639 19.8204313,3.73432639 C20.7850785,3.73432639 21.6525819,3.90782708 22.424082,4.25073328 C23.1986923,4.59773465 23.830749,5.14306695 24.3233624,5.88564159 C24.7789119,6.5476605 25.0732462,7.30780811 25.210616,8.16914286 L25.210616,8.16914286 Z M22.308484,8.45523497 C22.2568536,7.68788192 21.9955399,7.10745551 21.5359471,6.7149925 C21.0763544,6.31532405 20.4980015,6.11289795 19.8215198,6.11289795 C19.0851657,6.11289795 18.5077977,6.32771326 18.0988503,6.74288117 C17.6898511,7.1642696 17.4378682,7.73334355 17.328387,8.45316146 L22.308484,8.45523497 L22.308484,8.45523497 Z" id="Behance_3_"></path>
            </g>
        </g>
    </g>
</svg>
