<svg width="38px" height="30px" viewBox="0 0 38 30" version="1.1" xmlns="http://www.w3.org/2000/svg" xmlns:xlink="http://www.w3.org/1999/xlink" xmlns:sketch="http://www.bohemiancoding.com/sketch/ns">
    <g id="Page-1" stroke="none" stroke-width="1" fill="none" fill-rule="evenodd" >
        <g id="Desktop-Copy-7"  transform="translate(-581.000000, -284.000000)" fill="#FFFFFF">
            <g id="shape-copy"  transform="translate(589.273990, 288.586490)">
                <path d="M12.128086,0.305077854 C11.5021257,-0.110269104 10.6855921,-0.100712448 10.0691604,0.330072184 L0.845408323,6.77346349 C0.35358238,7.11750309 0.060392548,7.67987552 0.060392548,8.28194483 L0.060392548,15.2244876 C0.060392548,15.8419946 0.368974846,16.4175993 0.882790026,16.7579633 L10.2575349,22.9734651 C10.8703016,23.3799905 11.666312,23.3799905 12.2790788,22.9734651 L21.8399992,16.6381375 C22.3530814,16.2977735 22.6623967,15.7221688 22.6623967,15.1046618 L22.6623967,8.28341508 C22.6623967,7.66664323 22.3538144,7.0910385 21.8407322,6.75067454 L12.128086,0.305077854 L12.128086,0.305077854 Z M19.2694574,7.82543074 L15.7357869,10.205038 L12.4220088,7.78793924 L12.4007526,3.03387061 L19.2694574,7.82543074 L19.2694574,7.82543074 Z M10.0031927,3.03828137 L10.0031927,7.69090243 L6.60732149,10.0727151 L3.22024596,7.79455539 L10.0031927,3.03828137 L10.0031927,3.03828137 Z M2.29156717,10.0874176 L4.48389414,11.5606128 L2.29156717,13.0992344 L2.29156717,10.0874176 L2.29156717,10.0874176 Z M10.0610977,20.0064911 L3.22171191,15.4060641 L6.63810643,13.0110191 L10.0610977,15.3141731 L10.0610977,20.0064911 L10.0610977,20.0064911 Z M8.76226676,11.5223862 L10.976583,9.96906211 L13.5559205,11.6694117 L11.2697728,13.2095035 L8.76226676,11.5223862 L8.76226676,11.5223862 Z M12.4769819,20.0064911 L12.4769819,15.3127029 L15.7482475,13.113937 L19.2701903,15.4362043 L12.4769819,20.0064911 L12.4769819,20.0064911 Z M20.2465125,13.1786282 L17.924449,11.648093 L20.2465125,10.0859474 L20.2465125,13.1786282 L20.2465125,13.1786282 Z" id="Shape-Copy" ></path>
            </g>
        </g>
    </g>
</svg>
