<svg width="37px" height="30px" viewBox="0 0 37 30" version="1.1" xmlns="http://www.w3.org/2000/svg" xmlns:xlink="http://www.w3.org/1999/xlink" >
    <g id="Page-1" stroke="none" stroke-width="1" fill="none" fill-rule="evenodd">
        <g id="Desktop-Copy-7" transform="translate(-482.000000, -284.000000)" fill="#FFFFFF">
            <g id="animals-copy" transform="translate(489.031566, 288.863005)">
                <path d="M11.1058025,0 C4.97223261,0 0,4.97223261 0,11.1058025 C0,17.2393723 4.97223261,22.2116049 11.1058025,22.2116049 C17.2393723,22.2116049 22.2116049,17.2393723 22.2116049,11.1058025 C22.2116049,4.97223261 17.2393723,0 11.1058025,0 L11.1058025,0 Z M17.701044,17.701044 C16.8438149,18.5582297 15.8462014,19.2309984 14.735708,19.7006958 C14.4536379,19.8199964 14.1671863,19.9247206 13.8767002,20.015042 L13.8767002,18.3506033 C13.8767002,17.4757177 13.57667,16.8322318 12.9765228,16.4201025 C13.3525584,16.3839652 13.6977493,16.3333384 14.012269,16.2682653 C14.3267888,16.2031923 14.6594423,16.1091834 15.010056,15.9862821 C15.3607564,15.8633807 15.6752762,15.7169663 15.9536154,15.5470389 C16.2320413,15.3771114 16.499535,15.1566005 16.7561831,14.8854628 C17.012918,14.614325 17.2279628,14.30705 17.401491,13.9635944 C17.5750192,13.6201388 17.7124535,13.2080094 17.8136204,12.7272062 C17.9148741,12.2464031 17.9654575,11.7167517 17.9654575,11.138339 C17.9654575,10.0176507 17.6003543,9.06324583 16.870061,8.27512429 C17.2027145,7.40748347 17.1665339,6.46392409 16.7616059,5.44444613 L16.4904681,5.4119096 C16.3025371,5.39021858 15.9644609,5.46973786 15.4764129,5.65051082 C14.988365,5.83128378 14.4406667,6.12771327 13.8333181,6.53984266 C12.9729655,6.30124143 12.0799896,6.18194082 11.1545205,6.18194082 C10.2218066,6.18194082 9.33247477,6.30124143 8.48652498,6.53984266 C8.10333141,6.27955041 7.74000682,6.06446225 7.3965512,5.8945348 C7.05309558,5.72460735 6.77835712,5.60895083 6.57229242,5.54747847 C6.36622773,5.48600612 6.17460926,5.44804684 5.99748038,5.43360062 C5.82035151,5.4191544 5.70647365,5.41551031 5.65584681,5.42275511 C5.60521997,5.42999991 5.56908273,5.43720133 5.54739171,5.44444613 C5.14250712,6.47116889 5.1063265,7.41472828 5.43893661,8.27512429 C4.70868671,9.06324583 4.34354008,10.0176507 4.34354008,11.138339 C4.34354008,11.7167517 4.39416692,12.2464031 4.49537722,12.7272062 C4.59658752,13.2080094 4.73397844,13.6201388 4.90750661,13.9635944 C5.08103477,14.30705 5.29612293,14.614325 5.55281446,14.8854628 C5.809506,15.1566005 6.07699966,15.3771114 6.35538222,15.5470389 C6.63376478,15.7169663 6.94828457,15.8633807 7.29894161,15.9862821 C7.64959864,16.1091834 7.98220875,16.2031923 8.29672855,16.2682653 C8.61124834,16.3333384 8.95648263,16.3839652 9.33247477,16.4201025 C8.73957242,16.824987 8.44314294,17.4685162 8.44314294,18.3506033 L8.44314294,20.0474918 C8.11565191,19.9500124 7.79284614,19.834833 7.47572342,19.7006958 C6.36527333,19.2309984 5.36761653,18.5582297 4.51043079,17.701044 C3.65328842,16.8439016 2.98047635,15.8462014 2.51082238,14.735708 C2.02503028,13.5870383 1.77866367,12.3657471 1.77866367,11.1058025 C1.77866367,9.84585784 2.02503028,8.62456663 2.51090914,7.47581019 C2.9806065,6.36536009 3.65337519,5.3677033 4.51051755,4.51051755 C5.36765991,3.65333181 6.36536009,2.98056312 7.47581019,2.51090914 C8.62456663,2.02503028 9.84585784,1.77866367 11.1058025,1.77866367 C12.3657471,1.77866367 13.5870383,2.02503028 14.7358381,2.51090914 C15.8463316,2.9806065 16.843945,3.65337519 17.7011741,4.51051755 C18.5583165,5.36765991 19.2310852,6.36536009 19.7007392,7.47581019 C20.1865312,8.62456663 20.4329412,9.84585784 20.4329412,11.1058025 C20.4329412,12.3657471 20.1865312,13.5870383 19.7006958,14.7357947 C19.2310418,15.8462014 18.5581863,16.843945 17.701044,17.701044 L17.701044,17.701044 Z" id="Shape-Copy-2"></path>
            </g>
        </g>
    </g>
</svg>
