<svg width="34px" height="30px" viewBox="0 0 34 30" version="1.1" xmlns="http://www.w3.org/2000/svg" xmlns:xlink="http://www.w3.org/1999/xlink" xmlns:sketch="http://www.bohemiancoding.com/sketch/ns">
    <g id="Page-1" stroke="none" stroke-width="1" fill="none" fill-rule="evenodd">
        <g id="Desktop-Copy-7" transform="translate(-547.000000, -284.000000)" fill="#FFFFFF">
            <g id="camera-copy" transform="translate(554.425505, 289.620580)">
                <g id="post-instagram" transform="translate(0.000000, 0.757576)">
                    <path d="M17.7272727,0 L1.96969697,0 C0.886363636,0 0,0.886363636 0,1.96969697 L0,17.7272727 C0,18.8106061 0.886363636,19.6969697 1.96969697,19.6969697 L17.7272727,19.6969697 C18.8106061,19.6969697 19.6969697,18.8106061 19.6969697,17.7272727 L19.6969697,1.96969697 C19.6969697,0.886363636 18.8106061,0 17.7272727,0 L17.7272727,0 Z M9.84848485,5.90909091 C12.0151515,5.90909091 13.7878788,7.68181818 13.7878788,9.84848485 C13.7878788,12.0151515 12.0151515,13.7878788 9.84848485,13.7878788 C7.68181818,13.7878788 5.90909091,12.0151515 5.90909091,9.84848485 C5.90909091,7.68181818 7.68181818,5.90909091 9.84848485,5.90909091 L9.84848485,5.90909091 Z M2.46212121,17.7272727 C2.16666667,17.7272727 1.96969697,17.530303 1.96969697,17.2348485 L1.96969697,8.86363636 L4.03787879,8.86363636 C3.93939394,9.15909091 3.93939394,9.5530303 3.93939394,9.84848485 C3.93939394,13.0984848 6.59848485,15.7575758 9.84848485,15.7575758 C13.0984848,15.7575758 15.7575758,13.0984848 15.7575758,9.84848485 C15.7575758,9.5530303 15.7575758,9.15909091 15.6590909,8.86363636 L17.7272727,8.86363636 L17.7272727,17.2348485 C17.7272727,17.530303 17.530303,17.7272727 17.2348485,17.7272727 L2.46212121,17.7272727 L2.46212121,17.7272727 Z M17.7272727,4.43181818 C17.7272727,4.72727273 17.530303,4.92424242 17.2348485,4.92424242 L15.2651515,4.92424242 C14.969697,4.92424242 14.7727273,4.72727273 14.7727273,4.43181818 L14.7727273,2.46212121 C14.7727273,2.16666667 14.969697,1.96969697 15.2651515,1.96969697 L17.2348485,1.96969697 C17.530303,1.96969697 17.7272727,2.16666667 17.7272727,2.46212121 L17.7272727,4.43181818 L17.7272727,4.43181818 Z" id="Shape"></path>
                </g>
            </g>
        </g>
    </g>
</svg>
