<svg width="38px" height="30px" viewBox="0 0 38 30" version="1.1" xmlns="http://www.w3.org/2000/svg" xmlns:xlink="http://www.w3.org/1999/xlink">
    <g id="Page-1" stroke="none" stroke-width="1" fill="none" fill-rule="evenodd">
        <g id="Desktop-Copy-7" transform="translate(-444.000000, -284.000000)" fill="#FFFFFF">
            <g id="social-copy" transform="translate(451.910354, 287.553030)">
                <path d="M21.2155773,12.8519204 L21.2155773,20.6954547 L16.6683922,20.6954547 L16.6683922,13.377233 C16.6683922,11.5388361 16.0106909,10.284202 14.3647606,10.284202 C13.1083015,10.284202 12.3605819,11.1297334 12.0316326,11.9476428 C11.9116738,12.2400421 11.8807963,12.6470238 11.8807963,13.0563237 L11.8807963,20.6954547 L7.33208206,20.6954547 C7.33208206,20.6954547 7.39334387,8.3007892 7.33208206,7.01660942 L11.8803524,7.01660942 L11.8803524,8.95553099 C11.8711286,8.97003258 11.8591426,8.98566865 11.8504613,8.99972631 L11.8803524,8.99972631 L11.8803524,8.95553099 C12.4846346,8.0248151 13.5638191,6.69525619 15.9793694,6.69525619 C18.9720731,6.69520687 21.2155773,8.65030708 21.2155773,12.8519204 L21.2155773,12.8519204 Z M2.57393331,0.422727273 C1.01782408,0.422727273 0,1.44341221 0,2.78564767 C0,4.09863333 0.988376973,5.15029444 2.51355935,5.15029444 L2.54394363,5.15029444 C4.13019051,5.15029444 5.11669313,4.09883063 5.11669313,2.78564767 C5.0868021,1.44341221 4.13019051,0.422727273 2.57393331,0.422727273 L2.57393331,0.422727273 Z M0.270153742,20.6954547 L4.81714161,20.6954547 L4.81714161,7.01660942 L0.270153742,7.01660942 L0.270153742,20.6954547 L0.270153742,20.6954547 Z" id="LinkedIn"></path>
            </g>
        </g>
    </g>
</svg>
