<svg width="100px" height="122px" viewBox="0 0 100 122" version="1.1" xmlns="http://www.w3.org/2000/svg" xmlns:xlink="http://www.w3.org/1999/xlink">
    <g id="Page-1" stroke="none" stroke-width="1" fill="none" fill-rule="evenodd">
        <g id="Group-4" fill="#FFFFFF">
            <g id="Group-2">
                <path d="M0,0 L100,0 L100,122 L0,122 L0,0 Z M8,8 L8,114 L92,114 L92,8 L8,8 Z" id="Rectangle-144"></path>
                <rect id="Rectangle-146" x="49.1669043" y="16" width="34.8330957" height="6"></rect>
                <rect id="Rectangle-146" x="49.1669043" y="28" width="34.8330957" height="6"></rect>
                <rect id="Rectangle-146" x="49.1669043" y="40" width="34.8330957" height="6"></rect>
                <rect id="Rectangle-146" x="16" y="52" width="68" height="6"></rect>
                <rect id="Rectangle-146" x="16" y="64" width="68" height="6"></rect>
                <rect id="Rectangle-146" x="16" y="76" width="68" height="6"></rect>
                <rect id="Rectangle-146" x="16" y="88" width="68" height="6"></rect>
                <rect id="Rectangle-146" x="16" y="100" width="68" height="6"></rect>
            </g>
            <path d="M43.9999566,46 C44.0145118,41.4487281 40.3674912,34.0176954 36.2315818,34 L23.7686956,34 C19.6325055,34.0176839 15.9860397,41.4487281 16.0000402,46 L43.9999566,46 L43.9999566,46 Z" id="Path"></path>
            <circle id="Oval-34" cx="30" cy="23" r="7"></circle>
        </g>
    </g>
</svg>
